<svg width="94" height="133" viewBox="0 0 94 133" fill="none" xmlns="http://www.w3.org/2000/svg">
<path d="M0.132812 120.401V100.738H3.1266C6.86013 100.738 9.88692 103.784 9.88692 107.541C9.88692 110.731 7.72178 113.488 4.63999 114.177L10.0299 120.401H7.43395L2.06603 114.254V120.401H0.132812ZM2.06603 112.387H3.1266C5.77756 112.387 7.9427 110.209 7.9427 107.541C7.9427 104.873 5.77756 102.695 3.1266 102.695H2.06603V112.387Z" fill="white"/>
<path d="M14.5918 120.401V100.738H16.536V120.401H14.5918Z" fill="white"/>
<path d="M21.5293 120.402V117.445H24.4342V120.402H21.5293Z" fill="white"/>
<path d="M29.4264 120.401V102.684H25.207V100.738H35.623V102.695H31.3706V120.412H29.4264V120.401Z" fill="white"/>
<path d="M38.959 120.401V100.738H41.9528C45.6863 100.738 48.7131 103.784 48.7131 107.541C48.7131 110.731 46.548 113.488 43.4662 114.177L48.8561 120.401H46.2601L40.8922 114.254V120.401H38.959ZM40.8922 112.387H41.9528C44.6037 112.387 46.7689 110.209 46.7689 107.541C46.7689 104.873 44.6037 102.695 41.9528 102.695H40.8922V112.387Z" fill="white"/>
<path d="M51.9043 110.584C51.9043 104.926 56.4665 100.336 62.0883 100.336C67.7101 100.336 72.2723 104.927 72.2723 110.584C72.2723 116.241 67.7101 120.799 62.0883 120.799C56.4665 120.799 51.9043 116.23 51.9043 110.584ZM70.2511 110.584C70.2511 106.049 66.5946 102.348 62.0883 102.348C57.582 102.348 53.9255 106.049 53.9255 110.584C53.9255 115.118 57.582 118.798 62.0883 118.798C66.5946 118.787 70.2511 115.118 70.2511 110.584Z" fill="white"/>
<path d="M81.3745 121.001L73.6426 100.738H75.7298L81.3745 115.755L87.0193 100.738H89.1065L81.3745 121.001Z" fill="white"/>
<path d="M92.0117 120.401V100.738H93.9559V120.401H92.0117Z" fill="white"/>
<path d="M94 0H0V94.5794H93.989V68.2141V0H94ZM19.6173 55.2423C19.4624 54.3752 19.3744 53.4417 19.3744 52.4409C19.3744 46.7718 23.1739 42.0813 29.2935 40.1922H76.8128C76.6138 47.5392 71.7098 54.9535 61.1279 55.1758L19.6173 55.2423ZM37.3463 56.6646L46.8345 66.7687H38.8377C34.8172 66.7687 22.788 65.968 19.9711 56.6867L37.3463 56.6646ZM29.2495 38.7357C19.7282 37.068 13.9505 31.1885 13.6746 22.9413H60.6192C70.8472 23.3527 76.3599 31.0105 76.7898 38.7357H29.2495ZM26.6315 39.6471C21.2077 42.1145 17.927 46.8382 17.927 52.4409C17.927 53.4186 18.004 54.353 18.1479 55.2423L1.44648 55.2644V22.9422H12.2382C12.4921 31.112 17.894 37.3143 26.6306 39.648L26.6315 39.6471ZM18.4577 56.6867C19.3744 60.1439 21.4955 62.9001 24.7872 64.8897C29.3274 67.6348 34.9272 68.2132 38.8267 68.2132H48.1829L71.5668 93.122H1.44739V56.72L18.4577 56.6867ZM44.9453 62.6446H92.5526V66.7687H48.8108L44.9444 62.6446H44.9453ZM43.5758 61.1881L39.6654 57.0308H92.5416V61.1881H43.5758ZM67.4125 55.5752C70.0854 54.6639 72.2396 53.2074 73.896 51.4179H92.5526V55.5752H67.4125ZM75.0785 49.9624C76.0061 48.6839 76.7238 47.2726 77.2326 45.8051H92.5425V49.9624H75.0794H75.0785ZM77.6854 44.3495C78.0392 42.9825 78.2262 41.5823 78.2602 40.1922H92.5535V44.3495H77.6854ZM78.2382 38.7366C77.8073 30.3224 71.8207 21.9414 60.6531 21.4968H13.6856C14.1605 7.66985 26.5545 1.45649 38.8368 1.45649H92.5526V38.7366H78.2372H78.2382ZM28.6417 1.45649C25.6039 2.3789 22.843 3.72377 20.5119 5.44683C15.298 9.30343 12.4481 14.8388 12.2382 21.4968H1.44739V1.45649H28.6427H28.6417ZM92.5526 93.1349H73.5651L50.1812 68.2141H92.5535V93.1349H92.5526Z" fill="white"/>
</svg>
