<svg width="164" height="48" viewBox="0 0 164 48" fill="none" xmlns="http://www.w3.org/2000/svg">
<path d="M59 34.4547V12.4492H62.3504C66.5287 12.4492 69.9161 15.8579 69.9161 20.0624C69.9161 23.6321 67.493 26.7176 64.0441 27.4887L70.0761 34.4547H67.1709L61.1635 27.5754V34.4547H59ZM61.1635 25.4861H62.3504C65.3172 25.4861 67.7403 23.0478 67.7403 20.0624C67.7403 17.077 65.3172 14.6387 62.3504 14.6387H61.1635V25.4861Z" fill="white"/>
<path d="M75.1816 34.4547V12.4492H77.3575V34.4547H75.1816Z" fill="white"/>
<path d="M82.9453 34.4569V31.1484H86.1962V34.4569H82.9453Z" fill="white"/>
<path d="M91.7825 34.4547V14.6263H87.0605V12.4492H98.7173V14.6387H93.9584V34.467H91.7825V34.4547Z" fill="white"/>
<path d="M102.451 34.4547V12.4492H105.802C109.98 12.4492 113.367 15.8579 113.367 20.0624C113.367 23.6321 110.944 26.7176 107.495 27.4887L113.527 34.4547H110.622L104.615 27.5754V34.4547H102.451ZM104.615 25.4861H105.802C108.768 25.4861 111.191 23.0478 111.191 20.0624C111.191 17.077 108.768 14.6387 105.802 14.6387H104.615V25.4861Z" fill="white"/>
<path d="M116.939 23.4688C116.939 17.1367 122.045 12 128.337 12C134.628 12 139.734 17.1377 139.734 23.4688C139.734 29.7999 134.628 34.9004 128.337 34.9004C122.045 34.9004 116.939 29.7875 116.939 23.4688ZM137.472 23.4688C137.472 18.394 133.38 14.2514 128.337 14.2514C123.294 14.2514 119.201 18.394 119.201 23.4688C119.201 28.5436 123.294 32.6614 128.337 32.6614C133.38 32.649 137.472 28.5436 137.472 23.4688Z" fill="white"/>
<path d="M149.921 35.1256L141.268 12.4492H143.603L149.921 29.255L156.238 12.4492H158.574L149.921 35.1256Z" fill="white"/>
<path d="M161.824 34.4547V12.4492H164V34.4547H161.824Z" fill="white"/>
<path d="M47.706 0H0V48H47.7004V34.6194V0H47.706ZM9.95597 28.036C9.87735 27.596 9.83269 27.1222 9.83269 26.6143C9.83269 23.7371 11.761 21.3567 14.8667 20.398H38.9833C38.8823 24.1266 36.3934 27.8895 31.023 28.0023L9.95597 28.036ZM18.9536 28.7579L23.769 33.8858H19.7105C17.6701 33.8858 11.5651 33.4795 10.1355 28.7691L18.9536 28.7579ZM14.8444 19.6588C10.0123 18.8124 7.08004 15.8285 6.94001 11.6429H30.7648C35.9557 11.8517 38.7534 15.7382 38.9716 19.6588H14.8444ZM13.5158 20.1213C10.7631 21.3735 9.09813 23.7708 9.09813 26.6143C9.09813 27.1105 9.1372 27.5847 9.21024 28.036L0.734102 28.0472V11.6434H6.21103C6.33989 15.7897 9.08138 18.9374 13.5153 20.1218L13.5158 20.1213ZM9.36748 28.7691C9.83269 30.5237 10.9092 31.9224 12.5798 32.9322C14.884 34.3254 17.7259 34.6189 19.7049 34.6189H24.4533L36.3209 47.2603H0.734568V28.786L9.36748 28.7691ZM22.8102 31.7928H46.9714V33.8858H24.772L22.8097 31.7928H22.8102ZM22.1152 31.0536L20.1306 28.9437H46.9658V31.0536H22.1152ZM34.2125 28.205C35.5691 27.7425 36.6623 27.0033 37.503 26.0951H46.9714V28.205H34.2125ZM38.1031 25.3564C38.5739 24.7076 38.9381 23.9913 39.1963 23.2465H46.9663V25.3564H38.1035H38.1031ZM39.4261 22.5078C39.6057 21.8141 39.7006 21.1034 39.7178 20.398H46.9719V22.5078H39.4261ZM39.7067 19.6592C39.488 15.3889 36.4497 11.1355 30.7821 10.9098H6.9456C7.18657 3.89252 13.4767 0.739182 19.71 0.739182H46.9714V19.6592H39.7062H39.7067ZM14.536 0.739182C12.9943 1.20731 11.5931 1.88985 10.41 2.76432C7.7639 4.72159 6.31756 7.53085 6.21103 10.9098H0.734568V0.739182H14.5364H14.536ZM46.9714 47.2669H37.335L25.4675 34.6194H46.9719V47.2669H46.9714Z" fill="white"/>
</svg>
